<svg width="167" height="58" viewBox="0 0 167 58" fill="none" xmlns="http://www.w3.org/2000/svg">
<g clip-path="url(#clip0_3309_9280)">
<path d="M71.4374 28.9546C71.4374 23.7043 75.2956 19.493 80.8281 19.493C83.9166 19.493 86.4956 20.7136 88.2284 23.2303C88.31 23.3488 88.2768 23.5152 88.1545 23.5934L85.912 25.056C85.7973 25.1316 85.647 25.0963 85.568 24.9854C84.4416 23.4043 82.8718 22.5771 80.8561 22.5771C77.2247 22.5771 74.8981 25.4141 74.8981 28.9496C74.8981 32.485 77.2527 35.2665 80.8561 35.2665C83.0298 35.2665 84.5792 34.2881 85.6291 32.7498C85.7056 32.6363 85.8585 32.601 85.9757 32.6742L88.1876 34.0611C88.3074 34.1368 88.3456 34.2982 88.2717 34.4192C86.6714 36.9485 84.0874 38.3531 80.8306 38.3531C75.0433 38.3531 71.44 34.3108 71.44 28.947L71.4374 28.9546Z" fill="#042360"/>
<path d="M89.9511 28.9269C89.9511 23.6489 93.8654 19.493 99.3137 19.493C105.101 19.493 108.704 23.6489 108.704 28.9269C108.704 34.2049 104.788 38.3607 99.3137 38.3607C93.8399 38.3607 89.9511 34.2326 89.9511 28.9269ZM105.216 28.9269C105.216 25.3611 102.861 22.6099 99.3137 22.6099C95.7664 22.6099 93.4398 25.3611 93.4398 28.9269C93.4398 32.4926 95.7944 35.2438 99.3137 35.2438C102.833 35.2438 105.216 32.4926 105.216 28.9269Z" fill="#042360"/>
<path d="M122.159 35.2741V37.7706C122.159 37.9119 122.045 38.0253 121.902 38.0253H111.663C111.52 38.0253 111.406 37.9119 111.406 37.7706V20.1412C111.406 20 111.52 19.8865 111.663 19.8865H121.619C121.762 19.8865 121.877 20 121.877 20.1412V22.6377C121.877 22.7789 121.762 22.8924 121.619 22.8924H115.154C115.011 22.8924 114.897 23.0059 114.897 23.1471V26.9625C114.897 27.1037 115.011 27.2172 115.154 27.2172H120.939C121.082 27.2172 121.196 27.3306 121.196 27.4719V29.9961C121.196 30.1373 121.082 30.2508 120.939 30.2508H115.154C115.011 30.2508 114.897 30.3643 114.897 30.5055V34.7698C114.897 34.911 115.011 35.0245 115.154 35.0245H121.905C122.047 35.0245 122.162 35.138 122.162 35.2792L122.159 35.2741Z" fill="#042360"/>
<path d="M125.401 33.7282L127.967 32.7775C128.1 32.7271 128.247 32.8053 128.296 32.9364C128.93 34.6865 129.97 35.3547 131.815 35.3547C133.66 35.3547 134.679 34.457 134.679 32.9969C134.679 31.6201 133.912 30.8635 130.964 30.1322C127.361 29.2345 125.686 27.5777 125.686 24.6021C125.686 21.6264 127.929 19.5208 131.644 19.5208C134.527 19.5208 136.428 20.6782 137.317 23.0159C137.365 23.1445 137.299 23.2958 137.172 23.3487L134.649 24.3852C134.511 24.4407 134.363 24.365 134.312 24.2263C133.897 23.084 132.982 22.5216 131.502 22.5216C130.021 22.5216 129.004 23.2504 129.032 24.4028C129.06 25.7217 129.855 26.3118 133.005 27.1541C136.524 28.1098 138.056 29.8221 138.056 32.8809C138.056 36.2222 135.559 38.3556 131.644 38.3556C128.189 38.3556 126.107 36.9434 125.243 34.0409C125.205 33.9123 125.276 33.7711 125.404 33.7232L125.401 33.7282Z" fill="#042360"/>
<path d="M141.736 19.8865H144.712C144.855 19.8865 144.97 20 144.97 20.1412V37.7706C144.97 37.9119 144.855 38.0253 144.712 38.0253H141.736C141.593 38.0253 141.478 37.9119 141.478 37.7706V20.1412C141.478 20 141.593 19.8865 141.736 19.8865Z" fill="#042360"/>
<path d="M148.244 28.9269C148.244 23.6489 152.158 19.493 157.607 19.493C163.394 19.493 166.997 23.6489 166.997 28.9269C166.997 34.2049 163.081 38.3607 157.607 38.3607C152.133 38.3607 148.244 34.2326 148.244 28.9269ZM163.509 28.9269C163.509 25.3611 161.154 22.6099 157.607 22.6099C154.06 22.6099 151.733 25.3611 151.733 28.9269C151.733 32.4926 154.088 35.2438 157.607 35.2438C161.126 35.2438 163.509 32.4926 163.509 28.9269Z" fill="#042360"/>
<path d="M29.3058 58C45.491 58 58.6117 45.0163 58.6117 29C58.6117 12.9837 45.491 0 29.3058 0C13.1207 0 0 12.9837 0 29C0 45.0163 13.1207 58 29.3058 58Z" fill="#042360"/>
<path d="M49.6747 29C49.6747 33.5265 48.1686 37.6924 45.633 41.0488C45.5132 41.2052 45.2788 41.2228 45.1361 41.0841L39.8126 35.8919C39.7056 35.786 39.6877 35.622 39.7693 35.496C40.9696 33.6097 41.6551 31.3855 41.6551 29.0025C41.6551 26.6194 40.9696 24.3978 39.7693 22.5191C39.6877 22.393 39.7056 22.2291 39.8126 22.1232L45.1437 16.9309C45.2864 16.7922 45.5209 16.8074 45.6407 16.9662C48.1763 20.3201 49.6747 24.4886 49.6747 29.005V29Z" fill="#007BBF"/>
<path d="M37.1114 38.7717C37.0095 38.6734 36.8515 38.6633 36.7368 38.749C35.5977 39.6064 34.3057 40.2671 32.9168 40.6832C31.7752 41.0261 30.5622 41.2153 29.3033 41.2153C22.4865 41.2153 16.9643 35.7431 16.9643 28.9974C16.9643 22.2518 22.4865 16.7872 29.3033 16.7872C30.5622 16.7872 31.7752 16.9763 32.927 17.3193C34.3159 17.7379 35.6053 18.3986 36.7368 19.2459C36.8515 19.3316 37.0095 19.3241 37.1114 19.2232L42.4451 14.0284C42.5674 13.9099 42.5623 13.7081 42.4298 13.5997C38.885 10.6266 34.298 8.84119 29.3033 8.84119C22.2393 8.84119 16.0163 12.3994 12.3671 17.7984C10.2035 20.996 8.93701 24.8517 8.93701 28.9949C8.93701 33.1381 10.1959 36.9863 12.3594 40.1839C12.3594 40.1839 12.3594 40.194 12.3696 40.194C16.0188 45.593 22.2444 49.1512 29.3058 49.1512C34.3006 49.1512 38.8876 47.3658 42.4323 44.3927C42.5623 44.2817 42.5699 44.0825 42.4476 43.964L37.1139 38.7692L37.1114 38.7717Z" fill="white"/>
</g>
<defs>
<clipPath id="clip0_3309_9280">
<rect width="167" height="58" fill="white"/>
</clipPath>
</defs>
</svg>
